<svg xmlns="http://www.w3.org/2000/svg" viewBox="0 0 1200 664.24">
  <g>
    <path d="M763.16,596.8a13.61,13.61,0,1,1-13.6-13.6A13.56,13.56,0,0,1,763.16,596.8Z" fill="#148eff"/>
    <path d="M282.53,647.12,234.26,550.4a14.16,14.16,0,0,0-12.49-7.64H196.61a14.16,14.16,0,0,0-12.48,7.64l-48.08,96.72a2.54,2.54,0,0,0,2.23,3.73H159.9a3.41,3.41,0,0,0,3.17-1.87l10.62-21.24h71.38L255.69,649a3.12,3.12,0,0,0,3.17,1.87h21.62C282.16,650.85,283.27,648.8,282.53,647.12Zm-98.4-40.81,20.13-40.44a2.89,2.89,0,0,1,2.42-1.5h5a2.48,2.48,0,0,1,2.42,1.5l20.13,40.44ZM1200,545.37v16.4a2.66,2.66,0,0,1-2.61,2.61h-43.61v98a1.87,1.87,0,0,1-3.07,1.43L1129,645.38a7.47,7.47,0,0,1-2.63-5.69V564.38h-34.67a5.32,5.32,0,0,1-4.66-3l-8.38-16.77a1.28,1.28,0,0,1,1.12-1.87h117.4A2.84,2.84,0,0,1,1200,545.37ZM966.11,566.24v19.94h79.58a10.81,10.81,0,0,1,0,21.62H966.11v14.91a7,7,0,0,0,6.9,6.89h89.64a2.67,2.67,0,0,1,2.61,2.61v16.4a2.81,2.81,0,0,1-2.61,2.61H965.74a27.64,27.64,0,0,1-27.58-27.58V556.73A13.76,13.76,0,0,1,952,542.94h110.7a2.67,2.67,0,0,1,2.61,2.61V562a2.81,2.81,0,0,1-2.61,2.61H967.79C966.86,564.37,966.11,565.12,966.11,566.24Zm-51.25-20.13V641a13.45,13.45,0,0,1-22.17,10.25l-83.68-71v67.46a3.34,3.34,0,0,1-3.36,3.35H784.59a3.5,3.5,0,0,1-3.54-3.35V553a13.45,13.45,0,0,1,22.18-10.25l83.68,71V546.3a3.5,3.5,0,0,1,3.35-3.54h21.06A3.38,3.38,0,0,1,914.86,546.11ZM654.14,566.24v19.94h55.35a10.81,10.81,0,0,1,0,21.62H654.14v14.91A7,7,0,0,0,661,629.6h89.65a2.66,2.66,0,0,1,2.6,2.61v16.4a2.65,2.65,0,0,1-2.6,2.61H653.77a27.64,27.64,0,0,1-27.59-27.58V556.73A13.76,13.76,0,0,1,640,542.94h110.7a2.66,2.66,0,0,1,2.6,2.61V562a2.65,2.65,0,0,1-2.6,2.61H655.82C654.88,564.37,654.14,565.12,654.14,566.24Zm-39.51,65.6v16.4a2.67,2.67,0,0,1-2.61,2.61h-77.9a27.64,27.64,0,0,1-27.58-27.58v-77.9a2.66,2.66,0,0,1,2.61-2.61h22.92a2.66,2.66,0,0,1,2.61,2.61v77a7,7,0,0,0,6.89,6.9H612A2.66,2.66,0,0,1,614.63,631.84ZM491.82,545.37v16.4a2.66,2.66,0,0,1-2.61,2.61H448.58v98a1.86,1.86,0,0,1-3.07,1.42l-21.88-18.55a7.47,7.47,0,0,1-2.63-5.69V564.2H394.53a5.32,5.32,0,0,1-4.66-3l-8.38-16.77c-.37-.74.18-1.68,1.3-1.68H489.21A2.67,2.67,0,0,1,491.82,545.37ZM106.23,595.68c5-1.86,15.28-6.71,15.28-20.5,0-23.66-17.52-32.42-38.58-32.42H2.61A2.66,2.66,0,0,0,0,545.37V648.24a2.67,2.67,0,0,0,2.61,2.61H93.18c13.23-.19,32.24-7.64,32.24-32.06C125.42,603.51,111.82,597.17,106.23,595.68ZM27.58,566.05a1.57,1.57,0,0,1,1.68-1.68H78.83c5.22,0,16.59,0,16.59,10.81S83.86,586,78.83,586H27.58ZM85,629H29.26a1.56,1.56,0,0,1-1.68-1.67V607.61H85c5.59,0,14.54,0,14.54,10.81C99.52,629.42,89.27,629,85,629Zm283.09-83.67v16.4a2.66,2.66,0,0,1-2.61,2.61H333.59v98a1.87,1.87,0,0,1-3.07,1.42l-21.88-18.57a7.47,7.47,0,0,1-2.63-5.69V564.2H271.53a5.32,5.32,0,0,1-4.66-3l-8.38-16.77a1.37,1.37,0,0,1,1.3-1.68H365.46A2.67,2.67,0,0,1,368.07,545.37Z" fill="#fff"/>
    <path d="M740.4,159.94C679,131.52,590.62,113.47,507.51,120.19c4.16-27.53,14.45-46.68,31.32-50.72,23.22-5.57,48.55,9.7,72.7,37.51,15.82,2,34.58,5.66,47.64,8.67-44-82.83-103.1-129.25-148-112.12C477,16.57,459.5,63.6,461.58,126.81c-44.52,9.47-79.2,26.29-101.42,50.48-1.11,1.31-3.66,4.59-2.75,6.16.68,1.2,2.95-.14,3.92-.79,25.76-18,58.74-27.77,101.7-33.9,6.12,67.43,34.65,153,82,221.56-25.93,10.17-47.65,10.84-59.59-1.75-16.42-17.33-15.86-46.9-3.86-81.72-6.13-14.73-12.39-32.78-16.31-45.59-49.71,79.55-60.38,153.91-23.09,184.24,28.38,23.09,77.85,14.7,131.55-18.7,30.46,33.81,62.37,55.44,94.43,62.58,1.69.31,5.81.88,6.71-.69.69-1.19-1.6-2.49-2.65-3-28.48-13.3-53.42-37-80.21-71.13,55.34-39,115.13-106.48,150.87-181.82,21.77,17.38,33.21,35.86,28.27,52.49-6.79,22.89-32.68,37.19-68.83,44.21-9.69,12.67-22.2,27.11-31.33,36.91,93.74,3.28,163.48-24.66,171.1-72.13,5.8-36.12-26.19-74.75-82-104.56,14.06-43.29,16.83-81.74,7-113.07-.57-1.63-2.14-5.47-4-5.47-1.38,0-1.36,2.63-1.28,3.8C764.62,86.23,756.57,119.68,740.4,159.94ZM567.8,359.59C528.17,296,505.29,221,505.44,145.26h0c74.9-2.51,151.24,15.14,216.79,53.16h0C687,264.54,633.49,321.82,567.8,359.58Z" fill="#148eff"/>
  </g>
</svg>